{
  "asset": {
    "generator": "OpenSceneGraph 3.5.6",
    "version": "2.0"
  },
  "accessors": [
    {
      "type": "VEC3",
      "componentType": 5126,
      "count": 14128,
      "max": [
        3.1323494911193848,
        86.44715881347656,
        3.1323494911193848
      ],
      "min": [
        -3.1322898864746094,
        -2.2000200748443604,
        -3.1322898864746094
      ],
      "bufferView": 0,
      "byteOffset": 0
    },
    {
      "type": "VEC3",
      "componentType": 5126,
      "count": 14128,
      "bufferView": 0,
      "byteOffset": 12
    },
    {
      "type": "SCALAR",
      "componentType": 5123,
      "count": 21438,
      "bufferView": 1,
      "byteOffset": 0
    },
    {
      "type": "SCALAR",
      "componentType": 5123,
      "count": 15150,
      "bufferView": 1,
      "byteOffset": 42876
    },
    {
      "type": "SCALAR",
      "componentType": 5123,
      "count": 420,
      "bufferView": 1,
      "byteOffset": 73176
    },
    {
      "type": "SCALAR",
      "componentType": 5123,
      "count": 108,
      "bufferView": 1,
      "byteOffset": 74016
    },
    {
      "type": "VEC3",
      "componentType": 5126,
      "count": 9998,
      "max": [
        2.967519521713257,
        60.36236572265625,
        2.967529535293579
      ],
      "min": [
        -2.9674689769744873,
        0.7542761564254761,
        -2.967458963394165
      ],
      "bufferView": 2,
      "byteOffset": 0
    },
    {
      "type": "VEC3",
      "componentType": 5126,
      "count": 9998,
      "bufferView": 2,
      "byteOffset": 12
    },
    {
      "type": "VEC3",
      "componentType": 5126,
      "count": 269,
      "max": [
        13.542373657226562,
        13.83102798461914,
        20.696393966674805
      ],
      "min": [
        -10.116000175476074,
        -3.6964499950408936,
        5.970479965209961
      ],
      "bufferView": 3,
      "byteOffset": 0
    },
    {
      "type": "VEC3",
      "componentType": 5126,
      "count": 269,
      "bufferView": 3,
      "byteOffset": 12
    },
    {
      "type": "VEC3",
      "componentType": 5126,
      "count": 69,
      "max": [
        1.8674921989440918,
        13.83102798461914,
        29.408201217651367
      ],
      "min": [
        1.5565199851989746,
        -3.6964499950408936,
        20.689193725585938
      ],
      "bufferView": 4,
      "byteOffset": 0
    },
    {
      "type": "VEC3",
      "componentType": 5126,
      "count": 69,
      "bufferView": 4,
      "byteOffset": 12
    }
  ],
  "bufferViews": [
    {
      "buffer": 0,
      "byteOffset": 0,
      "byteLength": 339072,
      "byteStride": 24,
      "target": 34962
    },
    {
      "buffer": 0,
      "byteOffset": 339072,
      "byteLength": 74232,
      "target": 34963
    },
    {
      "buffer": 0,
      "byteOffset": 413304,
      "byteLength": 239952,
      "byteStride": 24,
      "target": 34962
    },
    {
      "buffer": 0,
      "byteOffset": 653256,
      "byteLength": 6456,
      "byteStride": 24,
      "target": 34962
    },
    {
      "buffer": 0,
      "byteOffset": 659712,
      "byteLength": 1656,
      "byteStride": 24,
      "target": 34962
    }
  ],
  "buffers": [
    {
      "uri": "Yellow_Toy_Rocket.bin",
      "byteLength": 661368
    }
  ],
  "materials": [
    {
      "name": "blk",
      "extras": {
        "SKETCHFAB_reflection": 0.1
      },
      "doubleSided": true,
      "pbrMetallicRoughness": {
        "baseColorFactor": [
          0.00951274,
          0.00951274,
          0.00951274,
          1
        ],
        "roughnessFactor": 0.0929204,
        "metallicFactor": 0.752212
      }
    },
    {
      "name": "Material.001",
      "extras": {
        "SKETCHFAB_reflection": 0.1
      },
      "doubleSided": true,
      "pbrMetallicRoughness": {
        "baseColorFactor": [
          0.972638,
          1,
          0.0304356,
          1
        ],
        "roughnessFactor": 0.128319,
        "metallicFactor": 0.902655
      }
    },
    {
      "name": "Material.002",
      "extras": {
        "SKETCHFAB_reflection": 0.1
      },
      "doubleSided": true,
      "pbrMetallicRoughness": {
        "baseColorFactor": [
          0.946937,
          0.977393,
          0.0219339,
          1
        ],
        "roughnessFactor": 0.0929204,
        "metallicFactor": 0.929204
      }
    },
    {
      "name": "Material.003",
      "extras": {
        "SKETCHFAB_reflection": 0.1
      },
      "doubleSided": true,
      "pbrMetallicRoughness": {
        "baseColorFactor": [
          0.0116448,
          0.0116448,
          0.0116448,
          1
        ],
        "roughnessFactor": 0.10177,
        "metallicFactor": 0.539823
      }
    }
  ],
  "meshes": [
    {
      "name": "GeometryNode_5",
      "primitives": [
        {
          "attributes": {
            "POSITION": 0,
            "NORMAL": 1
          },
          "mode": 4,
          "material": 0,
          "indices": 2
        }
      ]
    },
    {
      "name": "GeometryNode_16",
      "primitives": [
        {
          "attributes": {
            "POSITION": 6,
            "NORMAL": 7
          },
          "mode": 4,
          "material": 1,
          "indices": 3
        }
      ]
    },
    {
      "name": "GeometryNode_37",
      "primitives": [
        {
          "attributes": {
            "POSITION": 8,
            "NORMAL": 9
          },
          "mode": 4,
          "material": 2,
          "indices": 4
        }
      ]
    },
    {
      "name": "GeometryNode_48",
      "primitives": [
        {
          "attributes": {
            "POSITION": 10,
            "NORMAL": 11
          },
          "mode": 4,
          "material": 3,
          "indices": 5
        }
      ]
    }
  ],
  "nodes": [
    {
      "name": "root",
      "children": [
        1
      ]
    },
    {
      "name": "GLTF_SceneRootNode",
      "rotation": [
        0.7071067811865475,
        0,
        0,
        0.7071067811865476
      ],
      "children": [
        2,
        6
      ]
    },
    {
      "name": "Cylinder_2",
      "children": [
        3
      ]
    },
    {
      "name": "Cylinder",
      "children": [
        4,
        5
      ]
    },
    {
      "name": "GeometryNode_5",
      "extras": {
        "userData": {
          "attributes": 55,
          "vertex_bits": 16,
          "vertex_mode": 3,
          "uv_0_bits": 14,
          "uv_0_mode": 3,
          "epsilon": 0.25,
          "nphi": 720,
          "triangle_mode": 7,
          "vertex_obits": 16,
          "vtx_bbl_x": -3.13229,
          "vtx_bbl_y": -2.20002,
          "vtx_bbl_z": -3.13229,
          "vtx_h_x": 0.000181127,
          "vtx_h_y": 0.00181915,
          "vtx_h_z": 0.000181127,
          "uv_0_bbl_x": 6.70552e-7,
          "uv_0_bbl_y": 0.01,
          "uv_0_h_x": 0.000122085,
          "uv_0_h_y": 0.000120864
        }
      },
      "mesh": 0
    },
    {
      "name": "GeometryNode_16",
      "extras": {
        "userData": {
          "attributes": 55,
          "vertex_bits": 16,
          "vertex_mode": 3,
          "uv_0_bits": 14,
          "uv_0_mode": 3,
          "epsilon": 0.25,
          "nphi": 720,
          "triangle_mode": 7,
          "vertex_obits": 16,
          "vtx_bbl_x": -2.96765,
          "vtx_bbl_y": 0.752457,
          "vtx_bbl_z": -2.96764,
          "vtx_h_x": 0.000181127,
          "vtx_h_y": 0.00181915,
          "vtx_h_z": 0.000181127,
          "uv_0_bbl_x": 6.70552e-7,
          "uv_0_bbl_y": 0.0316093,
          "uv_0_h_x": 0.000122085,
          "uv_0_h_y": 0.000118226
        }
      },
      "mesh": 1
    },
    {
      "name": "Cube_3",
      "translation": [
        -1.7249900102615356,
        2.4000699520111084,
        -17.679100036621094
      ],
      "children": [
        7
      ]
    },
    {
      "name": "Cube",
      "children": [
        8,
        9
      ]
    },
    {
      "name": "GeometryNode_37",
      "extras": {
        "userData": {
          "tangent": 1,
          "attributes": 55,
          "vertex_bits": 12,
          "vertex_mode": 3,
          "uv_0_bits": 14,
          "uv_0_mode": 3,
          "epsilon": 0.25,
          "nphi": 720,
          "triangle_mode": 7,
          "vertex_obits": 14,
          "vtx_bbl_x": -10.116,
          "vtx_bbl_y": -3.69645,
          "vtx_bbl_z": 5.97048,
          "vtx_h_x": 0.0024486,
          "vtx_h_y": 0.00856252,
          "vtx_h_z": 0.0071939,
          "uv_0_bbl_x": 0.125,
          "uv_0_bbl_y": 0,
          "uv_0_h_x": 0.0000915639,
          "uv_0_h_y": 0.000122085
        }
      },
      "mesh": 2
    },
    {
      "name": "GeometryNode_48",
      "extras": {
        "userData": {
          "tangent": 1,
          "attributes": 55,
          "vertex_bits": 8,
          "vertex_mode": 3,
          "uv_0_bits": 14,
          "uv_0_mode": 3,
          "epsilon": 0.25,
          "nphi": 720,
          "triangle_mode": 7,
          "vertex_obits": 12,
          "vtx_bbl_x": 1.55652,
          "vtx_bbl_y": -3.69645,
          "vtx_bbl_z": 20.682,
          "vtx_h_x": 0.0024486,
          "vtx_h_y": 0.00856252,
          "vtx_h_z": 0.0071939,
          "uv_0_bbl_x": 0.125,
          "uv_0_bbl_y": 0,
          "uv_0_h_x": 0.0000915639,
          "uv_0_h_y": 0.0000915639
        }
      },
      "mesh": 3
    },
    {
      "name": "Sketchfab_model",
      "translation": [
        0.011803259141743183,
        -40.05873107910156,
        -136.75315856933594
      ],
      "rotation": [
        -0.5877852635648378,
        1.1458792494233151e-16,
        -8.325300519084139e-17,
        0.809016986185095
      ],
      "children": [
        0
      ]
    }
  ],
  "scenes": [
    {
      "name": "Scene",
      "nodes": [
        10
      ]
    }
  ]
}